<svg xmlns="http://www.w3.org/2000/svg" viewBox="0 0 65.34 60"><defs><style>.cls-1{fill:#a30000;}.cls-2{fill:#c00;}.cls-3{fill:#820000;}</style></defs><title>Asset 6</title><g id="Layer_2" data-name="Layer 2"><g id="Provider_icons" data-name="Provider icons"><path class="cls-1" d="M19,26.91,8.48,30.72a30.48,30.48,0,0,0,.83,5l10-3.63A19.55,19.55,0,0,1,19,26.9"/><path class="cls-1" d="M65.34,15.31A30,30,0,0,0,62.78,11L52.29,14.78a19.5,19.5,0,0,1,3.08,4.16Z"/><path class="cls-2" d="M42.26,12.33a19.37,19.37,0,0,1,5.66,4l10.49-3.81A30,30,0,0,0,4.12,32.31L14.61,28.5A19.44,19.44,0,0,1,42.26,12.33"/><path class="cls-2" d="M10,35.46,0,39.09A30.37,30.37,0,0,0,4.68,49.25l10.47-3.81a19.59,19.59,0,0,1-5.19-10"/><path class="cls-2" d="M53.44,31.5a19.18,19.18,0,0,1-1.76,6.73,19.51,19.51,0,0,1-25.9,9.43,19.31,19.31,0,0,1-5.68-4L9.63,47.45a29.72,29.72,0,0,0,11.7,9.75A30,30,0,0,0,61.21,42.68a29.68,29.68,0,0,0,2.7-15Z"/><path class="cls-2" d="M56,18.7l-10,3.64a19.57,19.57,0,0,1,2.44,11L59,29.48A30.25,30.25,0,0,0,56,18.68"/><path class="cls-3" d="M18.93,29a19.15,19.15,0,0,1,0-2.11L8.48,30.72c.05.67.14,1.34.24,2Z"/><path class="cls-3" d="M63.82,12.54c-.33-.54-.67-1.07-1-1.58L52.29,14.78a17.68,17.68,0,0,1,1.29,1.49Z"/><path class="cls-1" d="M9.63,47.45a29.85,29.85,0,0,0,2.67,3.24l11.4-4.16a19.28,19.28,0,0,1-3.6-2.9ZM63.91,27.7,53.44,31.51a19.18,19.18,0,0,1-.89,4.5l11.39-4.16a29.7,29.7,0,0,0,0-4.16"/></g></g></svg>